<mxfile host="app.diagrams.net" modified="2022-12-28T07:54:06.967Z" agent="5.0 (Windows NT 10.0; Win64; x64) AppleWebKit/537.36 (KHTML, like Gecko) Chrome/92.0.4515.107 Safari/537.36" etag="eRUnGpIUz_E4btdzhjFN" version="20.7.4" type="github">
  <diagram name="Page-1" id="2cc2dc42-3aac-f2a9-1cec-7a8b7cbee084">
    <mxGraphModel dx="1050" dy="548" grid="1" gridSize="10" guides="1" tooltips="1" connect="1" arrows="1" fold="1" page="1" pageScale="1" pageWidth="1100" pageHeight="850" background="#ffffff" math="0" shadow="0">
      <root>
        <mxCell id="0" />
        <mxCell id="1" parent="0" />
        <mxCell id="x5_-DXLLDjEPQp_z6z6p-1" value="" style="strokeWidth=1;shadow=0;dashed=0;align=center;html=1;shape=mxgraph.mockup.containers.marginRect2;rectMarginTop=32;strokeColor=#666666;gradientColor=none;fontSize=17;fontColor=#666666;" vertex="1" parent="1">
          <mxGeometry x="70.7" y="40" width="430" height="340" as="geometry" />
        </mxCell>
        <mxCell id="x5_-DXLLDjEPQp_z6z6p-3" value="Tab 1" style="strokeWidth=1;shadow=0;dashed=0;align=center;html=1;shape=mxgraph.mockup.containers.rrect;rSize=0;fontSize=17;fontColor=#ffffff;strokeColor=#008cff;fillColor=#008cff;" vertex="1" parent="x5_-DXLLDjEPQp_z6z6p-1">
          <mxGeometry width="60" height="25" relative="1" as="geometry">
            <mxPoint x="9" as="offset" />
          </mxGeometry>
        </mxCell>
        <mxCell id="x5_-DXLLDjEPQp_z6z6p-4" value="Tab 3" style="strokeColor=inherit;fillColor=inherit;gradientColor=inherit;strokeWidth=1;shadow=0;dashed=0;align=center;html=1;shape=mxgraph.mockup.containers.rrect;rSize=0;fontSize=17;fontColor=#666666;gradientColor=none;" vertex="1" parent="x5_-DXLLDjEPQp_z6z6p-1">
          <mxGeometry width="60" height="25" relative="1" as="geometry">
            <mxPoint x="140" as="offset" />
          </mxGeometry>
        </mxCell>
        <mxCell id="x5_-DXLLDjEPQp_z6z6p-5" value="" style="strokeWidth=1;shadow=0;dashed=0;align=center;html=1;shape=mxgraph.mockup.containers.topButton;rSize=5;strokeColor=#008cff;fillColor=#008cff;gradientColor=none;resizeWidth=1;movable=0;deletable=1;" vertex="1" parent="x5_-DXLLDjEPQp_z6z6p-1">
          <mxGeometry width="429.99999999999983" height="7" relative="1" as="geometry">
            <mxPoint y="25" as="offset" />
          </mxGeometry>
        </mxCell>
        <mxCell id="x5_-DXLLDjEPQp_z6z6p-7" value="Tab 2" style="strokeColor=inherit;fillColor=inherit;gradientColor=inherit;strokeWidth=1;shadow=0;dashed=0;align=center;html=1;shape=mxgraph.mockup.containers.rrect;rSize=0;fontSize=17;fontColor=#666666;gradientColor=none;" vertex="1" parent="x5_-DXLLDjEPQp_z6z6p-1">
          <mxGeometry x="78.08457711442786" width="64.17910447761193" height="25" as="geometry" />
        </mxCell>
        <mxCell id="x5_-DXLLDjEPQp_z6z6p-13" value="device address 1" style="strokeWidth=1;shadow=0;dashed=0;align=center;html=1;shape=mxgraph.mockup.forms.rrect;rSize=0;fillColor=#eeeeee;strokeColor=#999999;gradientColor=#cccccc;align=left;spacingLeft=4;fontSize=17;fontColor=#666666;labelPosition=right;" vertex="1" parent="x5_-DXLLDjEPQp_z6z6p-1">
          <mxGeometry x="50.273631840796014" y="125" width="16.044776119402982" height="15" as="geometry" />
        </mxCell>
        <mxCell id="x5_-DXLLDjEPQp_z6z6p-24" value="Devices" style="text;html=1;strokeColor=none;fillColor=none;align=center;verticalAlign=middle;whiteSpace=wrap;rounded=0;labelBorderColor=none;fontSize=17;fontColor=#666666;" vertex="1" parent="x5_-DXLLDjEPQp_z6z6p-1">
          <mxGeometry x="42.786069651741286" y="85" width="64.17910447761193" height="30" as="geometry" />
        </mxCell>
        <mxCell id="x5_-DXLLDjEPQp_z6z6p-25" value="Alias" style="text;html=1;strokeColor=none;fillColor=none;align=left;verticalAlign=middle;rounded=0;fontSize=17;fontColor=#666666;" vertex="1" parent="x5_-DXLLDjEPQp_z6z6p-1">
          <mxGeometry x="264.2039800995024" y="85" width="64.17910447761193" height="30" as="geometry" />
        </mxCell>
        <mxCell id="x5_-DXLLDjEPQp_z6z6p-26" value="alias1" style="text;html=1;strokeColor=none;fillColor=none;align=left;verticalAlign=middle;rounded=0;fontSize=17;fontColor=#666666;" vertex="1" parent="x5_-DXLLDjEPQp_z6z6p-1">
          <mxGeometry x="264.2039800995024" y="117.5" width="64.17910447761193" height="30" as="geometry" />
        </mxCell>
        <mxCell id="x5_-DXLLDjEPQp_z6z6p-27" value="device address 2" style="strokeWidth=1;shadow=0;dashed=0;align=center;html=1;shape=mxgraph.mockup.forms.rrect;rSize=0;fillColor=#eeeeee;strokeColor=#999999;gradientColor=#cccccc;align=left;spacingLeft=4;fontSize=17;fontColor=#666666;labelPosition=right;" vertex="1" parent="x5_-DXLLDjEPQp_z6z6p-1">
          <mxGeometry x="50.273631840796014" y="160" width="16.044776119402982" height="15" as="geometry" />
        </mxCell>
        <mxCell id="x5_-DXLLDjEPQp_z6z6p-28" value="alias2" style="text;html=1;strokeColor=none;fillColor=none;align=left;verticalAlign=middle;rounded=0;fontSize=17;fontColor=#666666;" vertex="1" parent="x5_-DXLLDjEPQp_z6z6p-1">
          <mxGeometry x="264.2039800995024" y="152.5" width="64.17910447761193" height="30" as="geometry" />
        </mxCell>
        <mxCell id="x5_-DXLLDjEPQp_z6z6p-29" value="device address 3" style="strokeWidth=1;shadow=0;dashed=0;align=center;html=1;shape=mxgraph.mockup.forms.rrect;rSize=0;fillColor=#eeeeee;strokeColor=#999999;gradientColor=#cccccc;align=left;spacingLeft=4;fontSize=17;fontColor=#666666;labelPosition=right;" vertex="1" parent="x5_-DXLLDjEPQp_z6z6p-1">
          <mxGeometry x="50.273631840796014" y="199" width="16.044776119402982" height="15" as="geometry" />
        </mxCell>
        <mxCell id="x5_-DXLLDjEPQp_z6z6p-30" value="alias3" style="text;html=1;strokeColor=none;fillColor=none;align=left;verticalAlign=middle;rounded=0;fontSize=17;fontColor=#666666;" vertex="1" parent="x5_-DXLLDjEPQp_z6z6p-1">
          <mxGeometry x="264.2039800995024" y="191.5" width="64.17910447761193" height="30" as="geometry" />
        </mxCell>
        <mxCell id="x5_-DXLLDjEPQp_z6z6p-41" value="" style="shape=mxgraph.mockup.containers.marginRect;rectMarginTop=10;strokeColor=#666666;strokeWidth=1;dashed=0;rounded=1;arcSize=5;recursiveResize=0;labelBorderColor=none;fontSize=17;fontColor=#666666;fillColor=none;" vertex="1" parent="x5_-DXLLDjEPQp_z6z6p-1">
          <mxGeometry x="10.696517412935322" y="67.5" width="363.68159203980093" height="197.5" as="geometry" />
        </mxCell>
        <mxCell id="x5_-DXLLDjEPQp_z6z6p-43" value="TesterFL310" style="strokeWidth=1;shadow=0;dashed=0;align=center;html=1;shape=mxgraph.mockup.forms.comboBox;strokeColor=#999999;fillColor=#ddeeff;align=left;fillColor2=#aaddff;mainText=;fontColor=#666666;fontSize=12;spacingLeft=3;labelBorderColor=none;" vertex="1" parent="x5_-DXLLDjEPQp_z6z6p-1">
          <mxGeometry x="96.2686567164179" y="45" width="106.96517412935322" height="30" as="geometry" />
        </mxCell>
        <mxCell id="x5_-DXLLDjEPQp_z6z6p-44" value="AutoEnum" style="strokeWidth=1;shadow=0;dashed=0;align=center;html=1;shape=mxgraph.mockup.buttons.button;strokeColor=#666666;fontColor=#666666;mainText=;buttonStyle=round;fontSize=12;fontStyle=1;fillColor=#FFFFFF;whiteSpace=wrap;labelBorderColor=none;" vertex="1" parent="x5_-DXLLDjEPQp_z6z6p-1">
          <mxGeometry x="205.93034825870643" y="45" width="74.87562189054725" height="30" as="geometry" />
        </mxCell>
        <mxCell id="x5_-DXLLDjEPQp_z6z6p-46" value="Enum by order start" style="strokeWidth=1;shadow=0;dashed=0;align=center;html=1;shape=mxgraph.mockup.buttons.button;strokeColor=#666666;fontColor=#666666;mainText=;buttonStyle=round;fontSize=12;fontStyle=1;fillColor=#FFFFFF;whiteSpace=wrap;labelBorderColor=none;" vertex="1" parent="x5_-DXLLDjEPQp_z6z6p-1">
          <mxGeometry x="284.94527363184073" y="45" width="139.05472636815918" height="30" as="geometry" />
        </mxCell>
        <mxCell id="x5_-DXLLDjEPQp_z6z6p-39" value="Devices Type" style="text;html=1;strokeColor=none;fillColor=none;align=center;verticalAlign=middle;whiteSpace=wrap;rounded=0;labelBorderColor=none;fontSize=12;fontColor=#666666;" vertex="1" parent="x5_-DXLLDjEPQp_z6z6p-1">
          <mxGeometry x="-10.696517412935322" y="45" width="117.66169154228854" height="30" as="geometry" />
        </mxCell>
        <mxCell id="x5_-DXLLDjEPQp_z6z6p-50" value="" style="strokeWidth=1;shadow=0;dashed=0;align=center;html=1;shape=mxgraph.mockup.containers.marginRect2;rectMarginTop=32;strokeColor=#666666;gradientColor=none;fontSize=17;fontColor=#666666;" vertex="1" parent="1">
          <mxGeometry x="520.7" y="40" width="449.3" height="380" as="geometry" />
        </mxCell>
        <mxCell id="x5_-DXLLDjEPQp_z6z6p-51" value="Tab 1" style="strokeColor=inherit;fillColor=inherit;gradientColor=inherit;strokeWidth=1;shadow=0;dashed=0;align=center;html=1;shape=mxgraph.mockup.containers.rrect;rSize=0;fontSize=17;fontColor=#666666;gradientColor=none;" vertex="1" parent="x5_-DXLLDjEPQp_z6z6p-50">
          <mxGeometry width="60" height="25" relative="1" as="geometry">
            <mxPoint x="9" as="offset" />
          </mxGeometry>
        </mxCell>
        <mxCell id="x5_-DXLLDjEPQp_z6z6p-52" value="Tab 3" style="strokeColor=inherit;fillColor=inherit;gradientColor=inherit;strokeWidth=1;shadow=0;dashed=0;align=center;html=1;shape=mxgraph.mockup.containers.rrect;rSize=0;fontSize=17;fontColor=#666666;gradientColor=none;" vertex="1" parent="x5_-DXLLDjEPQp_z6z6p-50">
          <mxGeometry width="60" height="25" relative="1" as="geometry">
            <mxPoint x="140" as="offset" />
          </mxGeometry>
        </mxCell>
        <mxCell id="x5_-DXLLDjEPQp_z6z6p-53" value="" style="strokeWidth=1;shadow=0;dashed=0;align=center;html=1;shape=mxgraph.mockup.containers.topButton;rSize=5;strokeColor=#008cff;fillColor=#008cff;gradientColor=none;resizeWidth=1;movable=0;deletable=1;" vertex="1" parent="x5_-DXLLDjEPQp_z6z6p-50">
          <mxGeometry width="449.29999999999984" height="7" relative="1" as="geometry">
            <mxPoint y="25" as="offset" />
          </mxGeometry>
        </mxCell>
        <mxCell id="x5_-DXLLDjEPQp_z6z6p-54" value="Tab 2" style="strokeColor=#008cff;fillColor=#008cff;gradientColor=inherit;strokeWidth=1;shadow=0;dashed=0;align=center;html=1;shape=mxgraph.mockup.containers.rrect;rSize=0;fontSize=17;fontColor=#ffffff;gradientColor=none;" vertex="1" parent="x5_-DXLLDjEPQp_z6z6p-50">
          <mxGeometry x="81.58930348258706" width="67.05970149253731" height="27.941176470588236" as="geometry" />
        </mxCell>
        <mxCell id="x5_-DXLLDjEPQp_z6z6p-71" style="edgeStyle=none;rounded=0;orthogonalLoop=1;jettySize=auto;html=1;fontFamily=Helvetica;fontSize=17;fontColor=#666666;endArrow=none;endFill=0;" edge="1" parent="x5_-DXLLDjEPQp_z6z6p-50" source="x5_-DXLLDjEPQp_z6z6p-68">
          <mxGeometry relative="1" as="geometry">
            <mxPoint x="33.33249540159407" y="337.25" as="targetPoint" />
          </mxGeometry>
        </mxCell>
        <mxCell id="x5_-DXLLDjEPQp_z6z6p-191" value="" style="group" vertex="1" connectable="0" parent="x5_-DXLLDjEPQp_z6z6p-50">
          <mxGeometry x="26.90474146740237" y="42.75" width="268.1291641119967" height="132.04999999999998" as="geometry" />
        </mxCell>
        <mxCell id="x5_-DXLLDjEPQp_z6z6p-68" value="site1" style="strokeWidth=1;shadow=0;dashed=0;align=center;html=1;shape=mxgraph.mockup.forms.rrect;rSize=0;fillColor=#eeeeee;strokeColor=#999999;gradientColor=#cccccc;align=left;spacingLeft=4;fontSize=17;fontColor=#666666;labelPosition=right;fontFamily=Helvetica;" vertex="1" parent="x5_-DXLLDjEPQp_z6z6p-191">
          <mxGeometry width="13.77375843041079" height="14.249999999999998" as="geometry" />
        </mxCell>
        <mxCell id="x5_-DXLLDjEPQp_z6z6p-180" value="" style="group" vertex="1" connectable="0" parent="x5_-DXLLDjEPQp_z6z6p-191">
          <mxGeometry x="6.4369364398119675" y="28.499999999999996" width="261.69222767218474" height="46.54999999999999" as="geometry" />
        </mxCell>
        <mxCell id="x5_-DXLLDjEPQp_z6z6p-143" value="site2" style="strokeWidth=1;shadow=0;dashed=0;align=center;html=1;shape=mxgraph.mockup.forms.rrect;rSize=0;fillColor=#eeeeee;strokeColor=#999999;gradientColor=#cccccc;align=left;spacingLeft=4;fontSize=17;fontColor=#666666;labelPosition=right;fontFamily=Helvetica;" vertex="1" parent="x5_-DXLLDjEPQp_z6z6p-180">
          <mxGeometry x="40.39384222358472" width="13.77375843041079" height="14.249999999999998" as="geometry" />
        </mxCell>
        <mxCell id="x5_-DXLLDjEPQp_z6z6p-158" value="" style="edgeStyle=none;orthogonalLoop=1;jettySize=auto;html=1;rounded=0;fontFamily=Helvetica;fontSize=17;fontColor=#666666;endArrow=none;endFill=0;" edge="1" parent="x5_-DXLLDjEPQp_z6z6p-180">
          <mxGeometry width="80" relative="1" as="geometry">
            <mxPoint x="45.90334559574903" y="38.949999999999996" as="sourcePoint" />
            <mxPoint x="73.45086245657062" y="38.949999999999996" as="targetPoint" />
            <Array as="points" />
          </mxGeometry>
        </mxCell>
        <mxCell id="x5_-DXLLDjEPQp_z6z6p-160" value="" style="edgeStyle=none;orthogonalLoop=1;jettySize=auto;html=1;rounded=0;fontFamily=Helvetica;fontSize=17;fontColor=#666666;endArrow=none;endFill=0;" edge="1" parent="x5_-DXLLDjEPQp_z6z6p-180">
          <mxGeometry width="80" relative="1" as="geometry">
            <mxPoint x="45.90334559574903" y="13.299999999999997" as="sourcePoint" />
            <mxPoint x="45.90334559574903" y="37.99999999999999" as="targetPoint" />
            <Array as="points" />
          </mxGeometry>
        </mxCell>
        <mxCell id="x5_-DXLLDjEPQp_z6z6p-161" value="" style="edgeStyle=none;orthogonalLoop=1;jettySize=auto;html=1;rounded=0;fontFamily=Helvetica;fontSize=17;fontColor=#666666;endArrow=none;endFill=0;entryX=-0.267;entryY=0.467;entryDx=0;entryDy=0;entryPerimeter=0;" edge="1" parent="x5_-DXLLDjEPQp_z6z6p-180">
          <mxGeometry width="80" relative="1" as="geometry">
            <mxPoint y="6.649999999999999" as="sourcePoint" />
            <mxPoint x="36.7254312282852" y="6.654750000000103" as="targetPoint" />
            <Array as="points" />
          </mxGeometry>
        </mxCell>
        <mxCell id="x5_-DXLLDjEPQp_z6z6p-179" value="" style="group" vertex="1" connectable="0" parent="x5_-DXLLDjEPQp_z6z6p-180">
          <mxGeometry x="73.45086245657062" y="32.3" width="188.24136521561414" height="14.249999999999998" as="geometry" />
        </mxCell>
        <mxCell id="x5_-DXLLDjEPQp_z6z6p-145" value="site3" style="strokeWidth=1;shadow=0;dashed=0;align=center;html=1;shape=mxgraph.mockup.forms.rrect;rSize=0;fillColor=#eeeeee;strokeColor=#999999;gradientColor=#cccccc;align=left;spacingLeft=4;fontSize=17;fontColor=#666666;labelPosition=right;fontFamily=Helvetica;" vertex="1" parent="x5_-DXLLDjEPQp_z6z6p-179">
          <mxGeometry width="13.77375843041079" height="14.249999999999998" as="geometry" />
        </mxCell>
        <mxCell id="x5_-DXLLDjEPQp_z6z6p-176" value="site3" style="strokeWidth=1;shadow=0;dashed=0;align=center;html=1;shape=mxgraph.mockup.forms.rrect;rSize=0;fillColor=#eeeeee;strokeColor=#999999;gradientColor=#cccccc;align=left;spacingLeft=4;fontSize=17;fontColor=#666666;labelPosition=right;fontFamily=Helvetica;" vertex="1" parent="x5_-DXLLDjEPQp_z6z6p-179">
          <mxGeometry x="55.737809115062376" width="13.77375843041079" height="14.249999999999998" as="geometry" />
        </mxCell>
        <mxCell id="x5_-DXLLDjEPQp_z6z6p-177" value="site3" style="strokeWidth=1;shadow=0;dashed=0;align=center;html=1;shape=mxgraph.mockup.forms.rrect;rSize=0;fillColor=#eeeeee;strokeColor=#999999;gradientColor=#cccccc;align=left;spacingLeft=4;fontSize=17;fontColor=#666666;labelPosition=right;fontFamily=Helvetica;" vertex="1" parent="x5_-DXLLDjEPQp_z6z6p-179">
          <mxGeometry x="119.3725730635602" width="13.77375843041079" height="14.249999999999998" as="geometry" />
        </mxCell>
        <mxCell id="x5_-DXLLDjEPQp_z6z6p-178" value="site3" style="strokeWidth=1;shadow=0;dashed=0;align=center;html=1;shape=mxgraph.mockup.forms.rrect;rSize=0;fillColor=#eeeeee;strokeColor=#999999;gradientColor=#cccccc;align=left;spacingLeft=4;fontSize=17;fontColor=#666666;labelPosition=right;fontFamily=Helvetica;" vertex="1" parent="x5_-DXLLDjEPQp_z6z6p-179">
          <mxGeometry x="174.46760678520334" width="13.77375843041079" height="14.249999999999998" as="geometry" />
        </mxCell>
        <mxCell id="x5_-DXLLDjEPQp_z6z6p-181" value="" style="group" vertex="1" connectable="0" parent="x5_-DXLLDjEPQp_z6z6p-191">
          <mxGeometry x="6.427753934191702" y="85.49999999999999" width="261.69222767218474" height="46.54999999999999" as="geometry" />
        </mxCell>
        <mxCell id="x5_-DXLLDjEPQp_z6z6p-182" value="site2" style="strokeWidth=1;shadow=0;dashed=0;align=center;html=1;shape=mxgraph.mockup.forms.rrect;rSize=0;fillColor=#eeeeee;strokeColor=#999999;gradientColor=#cccccc;align=left;spacingLeft=4;fontSize=17;fontColor=#666666;labelPosition=right;fontFamily=Helvetica;" vertex="1" parent="x5_-DXLLDjEPQp_z6z6p-181">
          <mxGeometry x="40.39384222358472" width="13.77375843041079" height="14.249999999999998" as="geometry" />
        </mxCell>
        <mxCell id="x5_-DXLLDjEPQp_z6z6p-183" value="" style="edgeStyle=none;orthogonalLoop=1;jettySize=auto;html=1;rounded=0;fontFamily=Helvetica;fontSize=17;fontColor=#666666;endArrow=none;endFill=0;" edge="1" parent="x5_-DXLLDjEPQp_z6z6p-181">
          <mxGeometry width="80" relative="1" as="geometry">
            <mxPoint x="45.90334559574903" y="38.949999999999996" as="sourcePoint" />
            <mxPoint x="73.45086245657062" y="38.949999999999996" as="targetPoint" />
            <Array as="points" />
          </mxGeometry>
        </mxCell>
        <mxCell id="x5_-DXLLDjEPQp_z6z6p-184" value="" style="edgeStyle=none;orthogonalLoop=1;jettySize=auto;html=1;rounded=0;fontFamily=Helvetica;fontSize=17;fontColor=#666666;endArrow=none;endFill=0;" edge="1" parent="x5_-DXLLDjEPQp_z6z6p-181">
          <mxGeometry width="80" relative="1" as="geometry">
            <mxPoint x="45.90334559574903" y="13.299999999999997" as="sourcePoint" />
            <mxPoint x="45.90334559574903" y="37.99999999999999" as="targetPoint" />
            <Array as="points" />
          </mxGeometry>
        </mxCell>
        <mxCell id="x5_-DXLLDjEPQp_z6z6p-185" value="" style="edgeStyle=none;orthogonalLoop=1;jettySize=auto;html=1;rounded=0;fontFamily=Helvetica;fontSize=17;fontColor=#666666;endArrow=none;endFill=0;entryX=-0.267;entryY=0.467;entryDx=0;entryDy=0;entryPerimeter=0;" edge="1" parent="x5_-DXLLDjEPQp_z6z6p-181">
          <mxGeometry width="80" relative="1" as="geometry">
            <mxPoint y="6.649999999999999" as="sourcePoint" />
            <mxPoint x="36.7254312282852" y="6.654750000000103" as="targetPoint" />
            <Array as="points" />
          </mxGeometry>
        </mxCell>
        <mxCell id="x5_-DXLLDjEPQp_z6z6p-186" value="" style="group" vertex="1" connectable="0" parent="x5_-DXLLDjEPQp_z6z6p-181">
          <mxGeometry x="73.45086245657062" y="32.3" width="188.24136521561414" height="14.249999999999998" as="geometry" />
        </mxCell>
        <mxCell id="x5_-DXLLDjEPQp_z6z6p-187" value="site3" style="strokeWidth=1;shadow=0;dashed=0;align=center;html=1;shape=mxgraph.mockup.forms.rrect;rSize=0;fillColor=#eeeeee;strokeColor=#999999;gradientColor=#cccccc;align=left;spacingLeft=4;fontSize=17;fontColor=#666666;labelPosition=right;fontFamily=Helvetica;" vertex="1" parent="x5_-DXLLDjEPQp_z6z6p-186">
          <mxGeometry width="13.77375843041079" height="14.249999999999998" as="geometry" />
        </mxCell>
        <mxCell id="x5_-DXLLDjEPQp_z6z6p-188" value="site3" style="strokeWidth=1;shadow=0;dashed=0;align=center;html=1;shape=mxgraph.mockup.forms.rrect;rSize=0;fillColor=#eeeeee;strokeColor=#999999;gradientColor=#cccccc;align=left;spacingLeft=4;fontSize=17;fontColor=#666666;labelPosition=right;fontFamily=Helvetica;" vertex="1" parent="x5_-DXLLDjEPQp_z6z6p-186">
          <mxGeometry x="55.737809115062376" width="13.77375843041079" height="14.249999999999998" as="geometry" />
        </mxCell>
        <mxCell id="x5_-DXLLDjEPQp_z6z6p-189" value="site3" style="strokeWidth=1;shadow=0;dashed=0;align=center;html=1;shape=mxgraph.mockup.forms.rrect;rSize=0;fillColor=#eeeeee;strokeColor=#999999;gradientColor=#cccccc;align=left;spacingLeft=4;fontSize=17;fontColor=#666666;labelPosition=right;fontFamily=Helvetica;" vertex="1" parent="x5_-DXLLDjEPQp_z6z6p-186">
          <mxGeometry x="119.3725730635602" width="13.77375843041079" height="14.249999999999998" as="geometry" />
        </mxCell>
        <mxCell id="x5_-DXLLDjEPQp_z6z6p-190" value="site3" style="strokeWidth=1;shadow=0;dashed=0;align=center;html=1;shape=mxgraph.mockup.forms.rrect;rSize=0;fillColor=#eeeeee;strokeColor=#999999;gradientColor=#cccccc;align=left;spacingLeft=4;fontSize=17;fontColor=#666666;labelPosition=right;fontFamily=Helvetica;" vertex="1" parent="x5_-DXLLDjEPQp_z6z6p-186">
          <mxGeometry x="174.46760678520334" width="13.77375843041079" height="14.249999999999998" as="geometry" />
        </mxCell>
        <mxCell id="x5_-DXLLDjEPQp_z6z6p-214" value="" style="group" vertex="1" connectable="0" parent="x5_-DXLLDjEPQp_z6z6p-50">
          <mxGeometry x="28.741242591457144" y="194.75" width="268.1291641119967" height="132.04999999999998" as="geometry" />
        </mxCell>
        <mxCell id="x5_-DXLLDjEPQp_z6z6p-215" value="site1" style="strokeWidth=1;shadow=0;dashed=0;align=center;html=1;shape=mxgraph.mockup.forms.rrect;rSize=0;fillColor=#eeeeee;strokeColor=#999999;gradientColor=#cccccc;align=left;spacingLeft=4;fontSize=17;fontColor=#666666;labelPosition=right;fontFamily=Helvetica;" vertex="1" parent="x5_-DXLLDjEPQp_z6z6p-214">
          <mxGeometry width="13.77375843041079" height="14.249999999999998" as="geometry" />
        </mxCell>
        <mxCell id="x5_-DXLLDjEPQp_z6z6p-216" value="" style="group" vertex="1" connectable="0" parent="x5_-DXLLDjEPQp_z6z6p-214">
          <mxGeometry x="6.4369364398119675" y="28.499999999999996" width="261.69222767218474" height="46.54999999999999" as="geometry" />
        </mxCell>
        <mxCell id="x5_-DXLLDjEPQp_z6z6p-217" value="site2" style="strokeWidth=1;shadow=0;dashed=0;align=center;html=1;shape=mxgraph.mockup.forms.rrect;rSize=0;fillColor=#eeeeee;strokeColor=#999999;gradientColor=#cccccc;align=left;spacingLeft=4;fontSize=17;fontColor=#666666;labelPosition=right;fontFamily=Helvetica;" vertex="1" parent="x5_-DXLLDjEPQp_z6z6p-216">
          <mxGeometry x="40.39384222358472" width="13.77375843041079" height="14.249999999999998" as="geometry" />
        </mxCell>
        <mxCell id="x5_-DXLLDjEPQp_z6z6p-218" value="" style="edgeStyle=none;orthogonalLoop=1;jettySize=auto;html=1;rounded=0;fontFamily=Helvetica;fontSize=17;fontColor=#666666;endArrow=none;endFill=0;" edge="1" parent="x5_-DXLLDjEPQp_z6z6p-216">
          <mxGeometry width="80" relative="1" as="geometry">
            <mxPoint x="45.90334559574903" y="38.949999999999996" as="sourcePoint" />
            <mxPoint x="73.45086245657062" y="38.949999999999996" as="targetPoint" />
            <Array as="points" />
          </mxGeometry>
        </mxCell>
        <mxCell id="x5_-DXLLDjEPQp_z6z6p-219" value="" style="edgeStyle=none;orthogonalLoop=1;jettySize=auto;html=1;rounded=0;fontFamily=Helvetica;fontSize=17;fontColor=#666666;endArrow=none;endFill=0;" edge="1" parent="x5_-DXLLDjEPQp_z6z6p-216">
          <mxGeometry width="80" relative="1" as="geometry">
            <mxPoint x="45.90334559574903" y="13.299999999999997" as="sourcePoint" />
            <mxPoint x="45.90334559574903" y="37.99999999999999" as="targetPoint" />
            <Array as="points" />
          </mxGeometry>
        </mxCell>
        <mxCell id="x5_-DXLLDjEPQp_z6z6p-220" value="" style="edgeStyle=none;orthogonalLoop=1;jettySize=auto;html=1;rounded=0;fontFamily=Helvetica;fontSize=17;fontColor=#666666;endArrow=none;endFill=0;entryX=-0.267;entryY=0.467;entryDx=0;entryDy=0;entryPerimeter=0;" edge="1" parent="x5_-DXLLDjEPQp_z6z6p-216">
          <mxGeometry width="80" relative="1" as="geometry">
            <mxPoint y="6.649999999999999" as="sourcePoint" />
            <mxPoint x="36.7254312282852" y="6.654750000000103" as="targetPoint" />
            <Array as="points" />
          </mxGeometry>
        </mxCell>
        <mxCell id="x5_-DXLLDjEPQp_z6z6p-221" value="" style="group" vertex="1" connectable="0" parent="x5_-DXLLDjEPQp_z6z6p-216">
          <mxGeometry x="73.45086245657062" y="32.3" width="188.24136521561414" height="14.249999999999998" as="geometry" />
        </mxCell>
        <mxCell id="x5_-DXLLDjEPQp_z6z6p-222" value="site3" style="strokeWidth=1;shadow=0;dashed=0;align=center;html=1;shape=mxgraph.mockup.forms.rrect;rSize=0;fillColor=#eeeeee;strokeColor=#999999;gradientColor=#cccccc;align=left;spacingLeft=4;fontSize=17;fontColor=#666666;labelPosition=right;fontFamily=Helvetica;" vertex="1" parent="x5_-DXLLDjEPQp_z6z6p-221">
          <mxGeometry width="13.77375843041079" height="14.249999999999998" as="geometry" />
        </mxCell>
        <mxCell id="x5_-DXLLDjEPQp_z6z6p-223" value="site3" style="strokeWidth=1;shadow=0;dashed=0;align=center;html=1;shape=mxgraph.mockup.forms.rrect;rSize=0;fillColor=#eeeeee;strokeColor=#999999;gradientColor=#cccccc;align=left;spacingLeft=4;fontSize=17;fontColor=#666666;labelPosition=right;fontFamily=Helvetica;" vertex="1" parent="x5_-DXLLDjEPQp_z6z6p-221">
          <mxGeometry x="55.737809115062376" width="13.77375843041079" height="14.249999999999998" as="geometry" />
        </mxCell>
        <mxCell id="x5_-DXLLDjEPQp_z6z6p-224" value="site3" style="strokeWidth=1;shadow=0;dashed=0;align=center;html=1;shape=mxgraph.mockup.forms.rrect;rSize=0;fillColor=#eeeeee;strokeColor=#999999;gradientColor=#cccccc;align=left;spacingLeft=4;fontSize=17;fontColor=#666666;labelPosition=right;fontFamily=Helvetica;" vertex="1" parent="x5_-DXLLDjEPQp_z6z6p-221">
          <mxGeometry x="119.3725730635602" width="13.77375843041079" height="14.249999999999998" as="geometry" />
        </mxCell>
        <mxCell id="x5_-DXLLDjEPQp_z6z6p-225" value="site3" style="strokeWidth=1;shadow=0;dashed=0;align=center;html=1;shape=mxgraph.mockup.forms.rrect;rSize=0;fillColor=#eeeeee;strokeColor=#999999;gradientColor=#cccccc;align=left;spacingLeft=4;fontSize=17;fontColor=#666666;labelPosition=right;fontFamily=Helvetica;" vertex="1" parent="x5_-DXLLDjEPQp_z6z6p-221">
          <mxGeometry x="174.46760678520334" width="13.77375843041079" height="14.249999999999998" as="geometry" />
        </mxCell>
        <mxCell id="x5_-DXLLDjEPQp_z6z6p-226" value="" style="group" vertex="1" connectable="0" parent="x5_-DXLLDjEPQp_z6z6p-214">
          <mxGeometry x="6.427753934191702" y="85.49999999999999" width="261.69222767218474" height="46.54999999999999" as="geometry" />
        </mxCell>
        <mxCell id="x5_-DXLLDjEPQp_z6z6p-227" value="site2" style="strokeWidth=1;shadow=0;dashed=0;align=center;html=1;shape=mxgraph.mockup.forms.rrect;rSize=0;fillColor=#eeeeee;strokeColor=#999999;gradientColor=#cccccc;align=left;spacingLeft=4;fontSize=17;fontColor=#666666;labelPosition=right;fontFamily=Helvetica;" vertex="1" parent="x5_-DXLLDjEPQp_z6z6p-226">
          <mxGeometry x="40.39384222358472" width="13.77375843041079" height="14.249999999999998" as="geometry" />
        </mxCell>
        <mxCell id="x5_-DXLLDjEPQp_z6z6p-228" value="" style="edgeStyle=none;orthogonalLoop=1;jettySize=auto;html=1;rounded=0;fontFamily=Helvetica;fontSize=17;fontColor=#666666;endArrow=none;endFill=0;" edge="1" parent="x5_-DXLLDjEPQp_z6z6p-226">
          <mxGeometry width="80" relative="1" as="geometry">
            <mxPoint x="45.90334559574903" y="38.949999999999996" as="sourcePoint" />
            <mxPoint x="73.45086245657062" y="38.949999999999996" as="targetPoint" />
            <Array as="points" />
          </mxGeometry>
        </mxCell>
        <mxCell id="x5_-DXLLDjEPQp_z6z6p-229" value="" style="edgeStyle=none;orthogonalLoop=1;jettySize=auto;html=1;rounded=0;fontFamily=Helvetica;fontSize=17;fontColor=#666666;endArrow=none;endFill=0;" edge="1" parent="x5_-DXLLDjEPQp_z6z6p-226">
          <mxGeometry width="80" relative="1" as="geometry">
            <mxPoint x="45.90334559574903" y="13.299999999999997" as="sourcePoint" />
            <mxPoint x="45.90334559574903" y="37.99999999999999" as="targetPoint" />
            <Array as="points" />
          </mxGeometry>
        </mxCell>
        <mxCell id="x5_-DXLLDjEPQp_z6z6p-230" value="" style="edgeStyle=none;orthogonalLoop=1;jettySize=auto;html=1;rounded=0;fontFamily=Helvetica;fontSize=17;fontColor=#666666;endArrow=none;endFill=0;entryX=-0.267;entryY=0.467;entryDx=0;entryDy=0;entryPerimeter=0;" edge="1" parent="x5_-DXLLDjEPQp_z6z6p-226">
          <mxGeometry width="80" relative="1" as="geometry">
            <mxPoint y="6.649999999999999" as="sourcePoint" />
            <mxPoint x="36.7254312282852" y="6.654750000000103" as="targetPoint" />
            <Array as="points" />
          </mxGeometry>
        </mxCell>
        <mxCell id="x5_-DXLLDjEPQp_z6z6p-231" value="" style="group" vertex="1" connectable="0" parent="x5_-DXLLDjEPQp_z6z6p-226">
          <mxGeometry x="73.45086245657062" y="32.3" width="188.24136521561414" height="14.249999999999998" as="geometry" />
        </mxCell>
        <mxCell id="x5_-DXLLDjEPQp_z6z6p-232" value="site3" style="strokeWidth=1;shadow=0;dashed=0;align=center;html=1;shape=mxgraph.mockup.forms.rrect;rSize=0;fillColor=#eeeeee;strokeColor=#999999;gradientColor=#cccccc;align=left;spacingLeft=4;fontSize=17;fontColor=#666666;labelPosition=right;fontFamily=Helvetica;" vertex="1" parent="x5_-DXLLDjEPQp_z6z6p-231">
          <mxGeometry width="13.77375843041079" height="14.249999999999998" as="geometry" />
        </mxCell>
        <mxCell id="x5_-DXLLDjEPQp_z6z6p-233" value="site3" style="strokeWidth=1;shadow=0;dashed=0;align=center;html=1;shape=mxgraph.mockup.forms.rrect;rSize=0;fillColor=#eeeeee;strokeColor=#999999;gradientColor=#cccccc;align=left;spacingLeft=4;fontSize=17;fontColor=#666666;labelPosition=right;fontFamily=Helvetica;" vertex="1" parent="x5_-DXLLDjEPQp_z6z6p-231">
          <mxGeometry x="55.737809115062376" width="13.77375843041079" height="14.249999999999998" as="geometry" />
        </mxCell>
        <mxCell id="x5_-DXLLDjEPQp_z6z6p-234" value="site3" style="strokeWidth=1;shadow=0;dashed=0;align=center;html=1;shape=mxgraph.mockup.forms.rrect;rSize=0;fillColor=#eeeeee;strokeColor=#999999;gradientColor=#cccccc;align=left;spacingLeft=4;fontSize=17;fontColor=#666666;labelPosition=right;fontFamily=Helvetica;" vertex="1" parent="x5_-DXLLDjEPQp_z6z6p-231">
          <mxGeometry x="119.3725730635602" width="13.77375843041079" height="14.249999999999998" as="geometry" />
        </mxCell>
        <mxCell id="x5_-DXLLDjEPQp_z6z6p-235" value="site3" style="strokeWidth=1;shadow=0;dashed=0;align=center;html=1;shape=mxgraph.mockup.forms.rrect;rSize=0;fillColor=#eeeeee;strokeColor=#999999;gradientColor=#cccccc;align=left;spacingLeft=4;fontSize=17;fontColor=#666666;labelPosition=right;fontFamily=Helvetica;" vertex="1" parent="x5_-DXLLDjEPQp_z6z6p-231">
          <mxGeometry x="174.46760678520334" width="13.77375843041079" height="14.249999999999998" as="geometry" />
        </mxCell>
        <mxCell id="x5_-DXLLDjEPQp_z6z6p-289" value="" style="shape=mxgraph.mockup.containers.marginRect;rectMarginTop=10;strokeColor=#666666;strokeWidth=1;dashed=0;rounded=1;arcSize=5;recursiveResize=0;shadow=0;fontFamily=Helvetica;fontSize=17;fontColor=#666666;fillColor=default;gradientColor=none;html=1;" vertex="1" parent="1">
          <mxGeometry x="202" y="580" width="348" height="240" as="geometry" />
        </mxCell>
        <mxCell id="x5_-DXLLDjEPQp_z6z6p-290" value="site" style="shape=rect;strokeColor=none;fillColor=#008cff;strokeWidth=1;dashed=0;rounded=1;arcSize=20;fontColor=#ffffff;fontSize=17;spacing=2;spacingTop=-2;align=left;autosize=1;spacingLeft=4;resizeWidth=0;resizeHeight=0;perimeter=none;shadow=0;fontFamily=Helvetica;html=1;" vertex="1" parent="x5_-DXLLDjEPQp_z6z6p-289">
          <mxGeometry x="5" width="50" height="30" as="geometry" />
        </mxCell>
      </root>
    </mxGraphModel>
  </diagram>
</mxfile>
